<?xml version="1.0" encoding="utf-8"?>
<!-- Generator: Adobe Illustrator 27.5.0, SVG Export Plug-In . SVG Version: 6.00 Build 0)  -->
<svg version="1.1" id="Capa_1" xmlns="http://www.w3.org/2000/svg" xmlns:xlink="http://www.w3.org/1999/xlink" x="0px" y="0px"
	 viewBox="0 0 425.197 415.677" style="enable-background:new 0 0 425.197 415.677;" xml:space="preserve">
<rect y="0.001" style="fill:#FFFFFF;" width="425.197" height="415.677"/>
<g>
	<g>
		<path style="fill:#3A414B;" d="M401.674,170.826c0.152-1.709,0.242-3.436,0.242-5.182c0-1.748-0.09-3.475-0.242-5.182
			c-11.74-4.348-13.25-9.824-5.275-19.367c-1.412-2.979-3.088-5.807-4.973-8.475c-12.17,2.309-16.074-1.598-13.77-13.771
			c-2.668-1.885-5.5-3.555-8.475-4.969c-9.539,7.979-15.016,6.465-19.365-5.273c-1.707-0.154-3.432-0.244-5.182-0.244
			c-1.746,0-3.469,0.09-5.178,0.242c-4.346,11.74-9.824,13.254-19.375,5.277c-2.975,1.414-5.805,3.084-8.471,4.971
			c2.309,12.174-1.594,16.076-13.768,13.77c-1.887,2.666-3.555,5.496-4.971,8.473c7.979,9.543,6.467,15.021-5.277,19.369
			c-0.148,1.705-0.244,3.432-0.244,5.18c0,1.746,0.096,3.471,0.244,5.18c11.744,4.348,13.256,9.826,5.277,19.369
			c1.416,2.977,3.084,5.805,4.971,8.471c12.174-2.305,16.076,1.598,13.768,13.771c2.666,1.885,5.496,3.555,8.471,4.969
			c9.551-7.977,15.029-6.463,19.375,5.277c1.709,0.154,3.432,0.244,5.178,0.244c1.75,0,3.475-0.09,5.182-0.244
			c4.35-11.74,9.826-13.252,19.365-5.273c2.975-1.414,5.807-3.086,8.475-4.971c-2.305-12.174,1.6-16.078,13.77-13.771
			c1.885-2.666,3.56-5.496,4.973-8.473C388.424,180.65,389.934,175.174,401.674,170.826z M344.635,206.553
			c-22.592,0-40.91-18.314-40.91-40.908c0-22.594,18.318-40.91,40.91-40.91c22.594,0,40.91,18.316,40.91,40.91
			C385.545,188.238,367.228,206.553,344.635,206.553z"/>
		<path style="fill:#E94E1B;" d="M344.635,131.986c-18.586,0-33.656,15.068-33.656,33.658c0,18.588,15.07,33.656,33.656,33.656
			c18.588,0,33.656-15.068,33.656-33.656C378.291,147.055,363.223,131.986,344.635,131.986z M344.635,189.209
			c-13.012,0-23.564-10.551-23.564-23.564s10.553-23.566,23.564-23.566c13.014,0,23.564,10.553,23.564,23.566
			S357.648,189.209,344.635,189.209z"/>
		<g>
			<path style="fill:#878787;" d="M401.674,170.826c0.152-1.709,0.242-3.436,0.242-5.182c0-1.748-0.09-3.475-0.242-5.182
				c-11.74-4.348-13.25-9.824-5.275-19.367c-1.412-2.979-3.088-5.807-4.973-8.475c-12.17,2.309-16.074-1.598-13.77-13.771
				c-2.668-1.885-5.5-3.555-8.475-4.969c-9.539,7.979-15.016,6.465-19.365-5.273c-1.316-0.119-2.652-0.186-3.992-0.217v16.375
				c22.043,0.631,39.721,18.684,39.721,40.879s-17.678,40.248-39.721,40.877v16.375c1.34-0.031,2.676-0.098,3.992-0.215
				c4.35-11.74,9.826-13.252,19.365-5.273c2.975-1.414,5.807-3.086,8.475-4.971c-2.305-12.174,1.6-16.078,13.77-13.771
				c1.885-2.666,3.56-5.496,4.973-8.473C388.424,180.65,389.934,175.174,401.674,170.826z"/>
			<path style="fill:#878787;" d="M345.824,132.047v10.094c12.457,0.621,22.375,10.891,22.375,23.504s-9.918,22.883-22.375,23.504
				v10.092c18.031-0.631,32.467-15.408,32.467-33.596S363.855,132.68,345.824,132.047z"/>
		</g>
	</g>
	<g>
		<path style="fill:#0D3953;" d="M287.506,323.975c0,3.857-3.129,6.99-6.99,6.99H147.061c-3.859,0-6.99-3.133-6.99-6.99V142.855
			c0-3.857,3.131-6.99,6.99-6.99h133.455c3.861,0,6.99,3.133,6.99,6.99V323.975z"/>
		<g>
			<path style="fill:#FFFFFF;" d="M275.434,313.68c0,3.229-2.617,5.846-5.844,5.846H157.986c-3.229,0-5.844-2.617-5.844-5.846
				V153.787c0-3.229,2.615-5.846,5.844-5.846H269.59c3.227,0,5.844,2.617,5.844,5.846V313.68z"/>
			<g>
				<path style="fill:#DADADA;" d="M265.738,169.018c0,0.82-0.662,1.484-1.484,1.484H163.322c-0.818,0-1.486-0.664-1.486-1.484l0,0
					c0-0.82,0.668-1.484,1.486-1.484h100.932C265.076,167.533,265.738,168.197,265.738,169.018L265.738,169.018z"/>
				<path style="fill:#DADADA;" d="M265.738,184.074c0,0.818-0.662,1.482-1.484,1.482H163.322c-0.818,0-1.486-0.664-1.486-1.482l0,0
					c0-0.822,0.668-1.486,1.486-1.486h100.932C265.076,182.588,265.738,183.252,265.738,184.074L265.738,184.074z"/>
				<path style="fill:#DADADA;" d="M265.738,199.131c0,0.818-0.662,1.482-1.484,1.482H163.322c-0.818,0-1.486-0.664-1.486-1.482l0,0
					c0-0.822,0.668-1.486,1.486-1.486h100.932C265.076,197.645,265.738,198.309,265.738,199.131L265.738,199.131z"/>
				<path style="fill:#DADADA;" d="M265.738,214.186c0,0.82-0.662,1.484-1.484,1.484H163.322c-0.818,0-1.486-0.664-1.486-1.484l0,0
					c0-0.818,0.668-1.484,1.486-1.484h100.932C265.076,212.701,265.738,213.367,265.738,214.186L265.738,214.186z"/>
				<path style="fill:#DADADA;" d="M265.738,229.242c0,0.82-0.662,1.484-1.484,1.484H163.322c-0.818,0-1.486-0.664-1.486-1.484l0,0
					c0-0.818,0.668-1.484,1.486-1.484h100.932C265.076,227.758,265.738,228.424,265.738,229.242L265.738,229.242z"/>
				<path style="fill:#DADADA;" d="M265.738,244.299c0,0.818-0.662,1.482-1.484,1.482H163.322c-0.818,0-1.486-0.664-1.486-1.482l0,0
					c0-0.82,0.668-1.484,1.486-1.484h100.932C265.076,242.814,265.738,243.479,265.738,244.299L265.738,244.299z"/>
				<path style="fill:#DADADA;" d="M265.738,259.353c0,0.82-0.662,1.484-1.484,1.484H163.322c-0.818,0-1.486-0.664-1.486-1.484l0,0
					c0-0.82,0.668-1.484,1.486-1.484h100.932C265.076,257.869,265.738,258.533,265.738,259.353L265.738,259.353z"/>
				<path style="fill:#DADADA;" d="M265.738,274.41c0,0.82-0.662,1.483-1.484,1.483H163.322c-0.818,0-1.486-0.662-1.486-1.483l0,0
					c0-0.818,0.668-1.484,1.486-1.484h100.932C265.076,272.926,265.738,273.592,265.738,274.41L265.738,274.41z"/>
				<path style="fill:#DADADA;" d="M265.738,289.465c0,0.82-0.662,1.486-1.484,1.486H163.322c-0.818,0-1.486-0.666-1.486-1.486l0,0
					c0-0.818,0.668-1.482,1.486-1.482h100.932C265.076,287.982,265.738,288.647,265.738,289.465L265.738,289.465z"/>
				<path style="fill:#DADADA;" d="M265.738,304.523c0,0.818-0.662,1.482-1.484,1.482H163.322c-0.818,0-1.486-0.664-1.486-1.482l0,0
					c0-0.82,0.668-1.482,1.486-1.482h100.932C265.076,303.041,265.738,303.703,265.738,304.523L265.738,304.523z"/>
			</g>
		</g>
		<g>
			<path style="fill:#E74645;" d="M258.273,152.6c0,3.861-3.129,6.99-6.99,6.99h-74.99c-3.861,0-6.99-3.129-6.99-6.99v-24.148
				c0-3.859,3.129-6.99,6.99-6.99h74.99c3.861,0,6.99,3.131,6.99,6.99V152.6z"/>
			<path style="fill:#DADADA;" d="M237.617,147.375c-7.625,1.275-15.174,1.229-22.73-0.592c-6.869-1.652-14.537-4.984-19.162-10.578
				c-3.82-4.619-5.775-9.613-6.346-14.744h-13.086c-3.861,0-6.99,3.131-6.99,6.99V152.6c0,3.861,3.129,6.99,6.99,6.99h74.99
				c3.861,0,6.99-3.129,6.99-6.99v-14.295C252.369,142.844,245.445,146.068,237.617,147.375z"/>
			<path style="fill:#E74645;" d="M213.787,96.676c-12.283,0-22.24,9.959-22.24,22.244c0,12.281,9.957,22.242,22.24,22.242
				c12.283,0,22.244-9.961,22.244-22.242C236.031,106.635,226.07,96.676,213.787,96.676z M213.787,127.18
				c-5.613,0-10.166-4.551-10.166-10.166c0-5.617,4.553-10.17,10.166-10.17c5.617,0,10.17,4.553,10.17,10.17
				C223.957,122.629,219.404,127.18,213.787,127.18z"/>
			<path style="fill:#FFFFFF;" d="M252.555,125.063c0,0.582-0.475,1.059-1.061,1.059h-56.135c-0.584,0-1.061-0.477-1.061-1.059l0,0
				c0-0.588,0.477-1.061,1.061-1.061h56.135C252.08,124.002,252.555,124.475,252.555,125.063L252.555,125.063z"/>
		</g>
	</g>
	<g>
		<path d="M314.191,96.168c0.082-0.916,0.131-1.84,0.131-2.775c0-0.938-0.049-1.861-0.131-2.777
			c-6.285-2.326-7.096-5.262-2.824-10.371c-0.756-1.596-1.654-3.111-2.662-4.539c-6.52,1.234-8.611-0.855-7.377-7.375
			c-1.428-1.01-2.945-1.904-4.539-2.662c-5.109,4.273-8.041,3.463-10.371-2.826c-0.914-0.08-1.84-0.129-2.775-0.129
			c-0.936,0-1.859,0.049-2.773,0.129c-2.326,6.289-5.262,7.1-10.377,2.828c-1.594,0.756-3.107,1.65-4.537,2.662
			c1.236,6.52-0.854,8.607-7.375,7.373c-1.008,1.43-1.902,2.945-2.66,4.539c4.273,5.109,3.465,8.045-2.826,10.373
			c-0.08,0.914-0.131,1.838-0.131,2.775c0,0.936,0.051,1.859,0.131,2.773c6.291,2.328,7.1,5.262,2.826,10.373
			c0.758,1.596,1.652,3.109,2.66,4.537c6.521-1.234,8.611,0.857,7.375,7.375c1.43,1.01,2.943,1.904,4.537,2.662
			c5.115-4.271,8.051-3.461,10.377,2.828c0.914,0.082,1.838,0.129,2.773,0.129c0.935,0,1.861-0.047,2.775-0.131
			c2.33-6.287,5.262-7.096,10.371-2.824c1.594-0.758,3.111-1.652,4.539-2.662c-1.234-6.52,0.857-8.611,7.377-7.375
			c1.008-1.43,1.906-2.943,2.662-4.539C307.096,101.43,307.906,98.496,314.191,96.168z M283.643,115.301
			c-12.1,0-21.912-9.809-21.912-21.908c0-12.102,9.813-21.912,21.912-21.912c12.102,0,21.91,9.811,21.91,21.912
			C305.553,105.492,295.744,115.301,283.643,115.301z"/>
		<path style="fill:#00B1C3;" d="M283.643,75.365c-9.955,0-18.025,8.07-18.025,18.027c0,9.953,8.07,18.023,18.025,18.023
			c9.955,0,18.025-8.07,18.025-18.023C301.668,83.436,293.598,75.365,283.643,75.365z M283.643,106.012
			c-6.969,0-12.619-5.65-12.619-12.619c0-6.971,5.65-12.623,12.619-12.623c6.971,0,12.619,5.652,12.619,12.623
			C296.262,100.361,290.613,106.012,283.643,106.012z"/>
	</g>
	<g>
		<g>
			
				<path style="fill:none;stroke:#2C343F;stroke-width:2.3317;stroke-linecap:round;stroke-linejoin:round;stroke-miterlimit:10;" d="
				M179.607,236.374v-3.839c0,0-0.172-2.919-2.918-4.672c0,0-8.336-4.865-8.648-23.218c0,0-0.619-25.508-33.246-25.508h-15.201"/>
			
				<path style="fill:none;stroke:#2C343F;stroke-width:2.3317;stroke-linecap:round;stroke-linejoin:round;stroke-miterlimit:10;" d="
				M66.385,236.374v-3.839c0,0,0.172-2.919,2.916-4.672c0,0,8.338-4.865,8.648-23.218c0,0,0.621-25.508,33.248-25.508h15.199"/>
		</g>
		<g>
			<g>
				<path style="fill:#F7C7AD;" d="M164.924,300.56c-16.637-1.878-24.83-6.796-26.232-7.709h-29.625
					c-1.402,0.913-9.596,5.831-26.232,7.709c0,0-31.711,1.185-30.82,58.675c0,0,23.861,10.765,71.865,10.674
					c48.002,0.091,71.865-10.674,71.865-10.674C196.635,301.745,164.924,300.56,164.924,300.56z"/>
				<path style="fill:#FFFFFF;" d="M82.834,300.56c0,0-31.711,1.185-30.82,58.675c0,0,23.861,10.765,71.865,10.674
					c48.002,0.091,71.865-10.674,71.865-10.674c0.891-57.49-30.82-58.675-30.82-58.675s-30.879-2.192-41.045,10.954
					C123.879,311.515,114.08,295.346,82.834,300.56z"/>
				<g>
					<rect x="108.752" y="276.866" style="fill:#F7C7AD;" width="30.252" height="22"/>
					<path style="fill:#DADADA;" d="M108.752,283.139v0.005c0.334,0.396,0.672,0.785,1.029,1.156
						c0.947,0.975,1.928,1.916,2.984,2.768c0.035,0.029,0.061,0.05,0.096,0.076c0.34,0.249,0.686,0.494,1.033,0.732
						c0.537,0.357,1.074,0.718,1.631,1.047c0.807,0.478,1.623,0.942,2.465,1.357c0.27,0.104,1.063,0.434,1.305,0.517
						c0.814,0.274,1.627,0.549,2.461,0.766c0.854,0.224,1.711,0.448,2.578,0.615c-0.225-0.045,2.287,0.375,1.686,0.322
						c2.037,0.227,4.088,0.381,6.139,0.342c0.881-0.018,1.762-0.033,2.639-0.104c0.281-0.021,1.594-0.217,1.727-0.217
						c0.838-0.183,1.664-0.415,2.48-0.682v-14.972h-30.252v6.206C108.84,283.205,108.859,283.252,108.752,283.139z"/>
				</g>
				<path style="fill:#F7C7AD;" d="M158.295,237.096c0,26.056-15.41,47.177-34.416,47.177c-19.008,0-34.416-21.121-34.416-47.177
					c0-26.055,15.408-42.386,34.416-42.386C142.885,194.71,158.295,211.041,158.295,237.096z"/>
				<path style="opacity:0.5;fill:#FFFFFF;" d="M105.533,215.811c0.01-0.061,0.023-0.121,0.031-0.181
					c4.863-5.712,11.574-8.89,18.982-8.89c14.85,0,26.887,12.758,26.887,33.114c0,13.566-5.35,25.413-13.313,31.811
					C138.121,271.666,93.121,266.302,105.533,215.811z"/>
				<path style="fill:#EDEDED;" d="M118.518,273.895c-11.725-7.389-18.117-19.934-19.74-33.434
					c-1.525-12.681,1.703-26.709,9.748-36.735c2.791-3.478,6.361-6.426,10.32-8.621c-16.621,2.627-29.383,18.28-29.383,41.991
					c0,26.056,15.408,47.177,34.416,47.177c5.522,0,10.736-1.785,15.361-4.952C132.041,279.563,124.822,277.87,118.518,273.895z"/>
				<path style="fill:#0D3953;" d="M107.617,293.704c-3.213,1.748-11.174,5.319-24.783,6.856c0,0-31.711,1.185-30.82,58.675
					c0,0,23.861,10.765,71.865,10.674c48.002,0.091,71.865-10.674,71.865-10.674c0.891-57.49-30.82-58.675-30.82-58.675
					c-13.615-1.537-21.576-5.11-24.787-6.859c0,0,16.908,37.678-16.258,71.587C123.879,365.288,91.822,332.254,107.617,293.704z"/>
				<path style="fill:#00B1C3;" d="M97.504,321.039c0.016,0.074,0.027,0.148,0.043,0.223c0.119,0.588,0.244,1.175,0.377,1.76
					c0.086-0.037,0.17-0.077,0.26-0.111C97.947,322.295,97.723,321.67,97.504,321.039z"/>
				<path style="fill:#031B2B;" d="M164.924,300.56c-13.615-1.537-21.576-5.11-24.787-6.859c0,0,2.357,17.813-16.258,71.587
					c0,0-16.197-45.539-16.262-71.584c-3.213,1.748-11.174,5.319-24.783,6.856c0,0-1.076,10.954,5.838,25.922
					c0,0,4.805-2.588,7.393-1.849l-7.475,5.487c0,0,11.725,19.42,28.91,39.788h14.414c0,0,19.52-27.364,28.967-43.796
					c0,0-2.297-2.596-9.381-4.807c0,0,4.348-1.477,9.381-0.737C160.881,320.569,166.389,311.515,164.924,300.56z"/>
				<path style="fill:#00B1C3;" d="M123.879,369.909"/>
				<path style="fill:#BE1622;" d="M123.879,365.288c-8.076-22.916-8.457-27.628-8.457-27.628l3.215-16.621l9.223,0.236
					l4.625,16.756C132.484,338.031,126.172,359.883,123.879,365.288z"/>
				<g>
					<path style="fill:#BE1622;" d="M116.104,311.515h14.76c0,0,0.65,7.89-5.047,11.507h-5.439
						C120.377,323.022,114.422,317.527,116.104,311.515z"/>
					<path style="fill:#DADADA;" d="M130.863,311.515h-2.629c0.211,0.55,0.334,1.141,0.334,1.758c0,2.725-2.274,4.998-4.998,4.998
						h-0.086c-2.725,0-4.996-2.273-4.996-4.998c0-0.617,0.121-1.208,0.334-1.758h-2.719c-1.682,6.013,4.273,11.507,4.273,11.507
						h5.439C131.514,319.404,130.863,311.515,130.863,311.515z"/>
				</g>
				<path style="fill:#432918;" d="M124.168,204.735c0,0,30.32-18.041,33.262,42.912c0,0,10.607-29.789-8.168-52.543
					c0,0-19.689-21.11-50.58-2.113c0,0-6.412,3.884-11.916,2.113c0,0,2.832,5.139,7.125,6.178c0,0-5.117,3.796-11.117,2.588
					c0,0,2.801,7.247,6.689,8.201c0,0-7.773,13.578,0.863,35.575C90.326,247.648,90.086,189.192,124.168,204.735z"/>
				<path style="fill:#C6C6C6;" d="M156.357,214.683c0,0-0.105-0.297-0.303-0.855c-0.201-0.558-0.471-1.387-0.896-2.402
					c-0.383-1.028-0.951-2.238-1.594-3.619c-0.354-0.675-0.73-1.393-1.131-2.146c-0.449-0.728-0.867-1.52-1.379-2.301
					c-0.533-0.767-1.031-1.602-1.664-2.381c-0.303-0.399-0.611-0.804-0.924-1.216c-0.336-0.39-0.678-0.788-1.025-1.19
					c-0.172-0.2-0.348-0.402-0.521-0.606c-0.189-0.191-0.381-0.382-0.572-0.574c-0.385-0.384-0.764-0.782-1.166-1.164
					c-0.846-0.716-1.658-1.505-2.602-2.162c-0.891-0.726-1.906-1.301-2.895-1.936c-1.051-0.527-2.084-1.117-3.207-1.538
					l-0.826-0.344c-0.275-0.124-0.572-0.188-0.855-0.285c-0.576-0.171-1.146-0.371-1.73-0.522c-0.594-0.126-1.186-0.249-1.779-0.373
					l-0.443-0.094l-0.449-0.064c-0.309-0.041-0.631-0.095-0.93-0.126c-1.184-0.147-2.424-0.225-3.635-0.251
					c-1.215,0.002-2.424,0.048-3.598,0.206c-0.297,0.032-0.582,0.095-0.873,0.141l-0.434,0.073l-0.434,0.095
					c-0.598,0.133-1.207,0.253-1.789,0.391c-0.576,0.144-1.148,0.289-1.717,0.432c-0.564,0.167-1.127,0.329-1.686,0.492
					c-2.215,0.696-4.32,1.489-6.258,2.38c-0.479,0.233-0.949,0.464-1.416,0.691c-0.467,0.224-0.9,0.493-1.346,0.724
					c-0.887,0.462-1.73,0.988-2.56,1.452c-1.646,0.96-3.25,1.744-4.752,2.238c-1.494,0.512-2.912,0.649-4.041,0.533
					c-0.281-0.043-0.549-0.06-0.795-0.121c-0.242-0.069-0.469-0.133-0.68-0.194c-0.408-0.153-0.744-0.312-1.012-0.444
					c-0.502-0.317-0.771-0.486-0.771-0.486s0.285,0.134,0.82,0.385c0.275,0.095,0.621,0.207,1.029,0.306
					c0.207,0.033,0.432,0.067,0.67,0.105c0.234,0.036,0.494,0.021,0.76,0.039c1.074-0.001,2.365-0.271,3.742-0.865
					c1.379-0.592,2.842-1.468,4.406-2.508c1.553-1.044,3.299-2.226,5.26-3.242c1.959-1.015,4.1-1.957,6.381-2.728
					c0.574-0.186,1.15-0.373,1.734-0.561c0.592-0.167,1.188-0.336,1.789-0.507c0.596-0.158,1.188-0.294,1.787-0.444l0.469-0.107
					l0.479-0.087c0.32-0.056,0.641-0.128,0.963-0.165c1.287-0.183,2.584-0.247,3.885-0.26c1.301,0.018,2.586,0.079,3.906,0.237
					c0.326,0.037,0.627,0.092,0.943,0.135l0.488,0.075l0.479,0.105c0.639,0.139,1.279,0.281,1.916,0.42
					c0.631,0.17,1.244,0.389,1.865,0.582c0.305,0.108,0.623,0.182,0.918,0.315l0.891,0.381c1.209,0.46,2.309,1.12,3.414,1.724
					c1.041,0.707,2.105,1.358,3.031,2.154c0.979,0.732,1.826,1.578,2.674,2.385c0.406,0.42,0.783,0.858,1.168,1.279
					c0.191,0.211,0.381,0.422,0.568,0.63c0.174,0.222,0.346,0.441,0.516,0.659c0.342,0.438,0.678,0.866,1.01,1.292
					c0.301,0.445,0.598,0.884,0.889,1.315c0.602,0.85,1.061,1.744,1.553,2.567c0.469,0.839,0.857,1.674,1.25,2.453
					c0.35,0.799,0.662,1.567,0.965,2.282c0.273,0.727,0.512,1.412,0.732,2.046c0.227,0.63,0.367,1.235,0.529,1.767
					c0.332,1.062,0.477,1.919,0.613,2.495C156.289,214.374,156.357,214.683,156.357,214.683z"/>
				<path style="fill:#C6C6C6;" d="M152.316,216.453c0,0-0.092-0.27-0.264-0.771c-0.178-0.501-0.408-1.25-0.779-2.164
					c-0.184-0.458-0.363-0.971-0.604-1.514c-0.24-0.542-0.5-1.128-0.777-1.754c-0.309-0.613-0.635-1.26-0.98-1.946
					c-0.379-0.665-0.77-1.368-1.191-2.089c-0.902-1.411-1.902-2.925-3.141-4.372c-0.586-0.752-1.283-1.436-1.967-2.158
					c-0.35-0.355-0.738-0.672-1.105-1.022c-0.186-0.171-0.373-0.344-0.561-0.517c-0.201-0.157-0.402-0.316-0.604-0.474
					c-1.58-1.323-3.428-2.393-5.373-3.276l-0.738-0.319c-0.246-0.108-0.49-0.218-0.75-0.289c-0.514-0.167-1.027-0.332-1.541-0.497
					c-0.521-0.148-1.059-0.239-1.586-0.361c-0.26-0.053-0.541-0.127-0.781-0.163l-0.842-0.122c-2.137-0.288-4.373-0.368-6.477-0.099
					c-0.266,0.023-0.523,0.071-0.781,0.12l-0.387,0.067l-0.178,0.032l-0.203,0.045c-0.539,0.122-1.074,0.24-1.607,0.359
					c-0.514,0.135-1.025,0.27-1.533,0.402c-0.506,0.135-1.008,0.303-1.506,0.451c-1.982,0.638-3.859,1.369-5.588,2.186
					c-1.721,0.838-3.258,1.755-4.729,2.642c-1.465,0.885-2.887,1.618-4.229,2.083c-1.332,0.484-2.607,0.621-3.619,0.52
					c-1.029-0.078-1.756-0.465-2.229-0.698c-0.445-0.292-0.686-0.446-0.686-0.446s0.254,0.124,0.73,0.354
					c0.248,0.09,0.557,0.197,0.92,0.286c0.186,0.031,0.387,0.061,0.6,0.099c0.211,0.027,0.443,0.02,0.682,0.033
					c0.961-0.003,2.115-0.257,3.34-0.815c1.227-0.55,2.523-1.363,3.908-2.318c1.375-0.967,2.934-2.044,4.676-2.981
					c1.748-0.934,3.658-1.801,5.701-2.506c0.514-0.171,1.023-0.358,1.555-0.516c0.529-0.154,1.065-0.312,1.602-0.47
					c0.529-0.134,1.061-0.27,1.596-0.405l0.203-0.05l0.23-0.044l0.43-0.083c0.287-0.054,0.576-0.11,0.865-0.139
					c2.318-0.313,4.646-0.258,6.992,0.039l0.84,0.131c0.316,0.05,0.582,0.126,0.875,0.188c0.572,0.139,1.15,0.247,1.715,0.409
					c0.557,0.186,1.111,0.37,1.664,0.556c0.281,0.082,0.547,0.202,0.813,0.321l0.795,0.354c2.104,0.96,4.031,2.212,5.678,3.651
					c0.209,0.176,0.416,0.35,0.627,0.524c0.191,0.19,0.385,0.378,0.578,0.564c0.381,0.376,0.773,0.735,1.121,1.126
					c0.686,0.793,1.379,1.548,1.953,2.361c1.23,1.566,2.156,3.201,2.98,4.711c0.383,0.77,0.744,1.514,1.068,2.225
					c0.293,0.725,0.57,1.413,0.83,2.059c0.225,0.659,0.434,1.276,0.627,1.846c0.186,0.571,0.313,1.113,0.451,1.591
					c0.287,0.956,0.404,1.727,0.523,2.245C152.26,216.174,152.316,216.453,152.316,216.453z"/>
				<path style="fill:#C6C6C6;" d="M87.873,205.114c0.174,0.355,0.375,0.689,0.607,0.999c0.111,0.158,0.238,0.304,0.354,0.454
					c0.133,0.14,0.258,0.284,0.393,0.417c0.143,0.126,0.277,0.257,0.422,0.377l0.447,0.335l0.475,0.285
					c0.162,0.088,0.332,0.153,0.498,0.232c0.16,0.084,0.344,0.121,0.512,0.178c0.174,0.054,0.344,0.112,0.525,0.134l0.531,0.095
					l0.541,0.027l0.27,0.015l0.273-0.023l0.539-0.041c0.18-0.016,0.361-0.065,0.541-0.092l0.537-0.096l3.592-0.635l-3.178,1.939
					c-0.176,0.107-0.449,0.329-0.672,0.523c-0.215,0.232-0.453,0.428-0.645,0.69c-0.412,0.482-0.773,1.021-1.113,1.57l-0.469,0.857
					c-0.158,0.284-0.264,0.602-0.4,0.899c-0.273,0.596-0.479,1.229-0.689,1.857c-0.238,0.615-0.365,1.279-0.529,1.926
					c-0.074,0.326-0.172,0.645-0.227,0.977c-0.051,0.332-0.105,0.665-0.166,0.995c-0.111,0.663-0.26,1.32-0.303,2l-0.205,2.02
					c-0.051,0.675-0.07,1.358-0.109,2.036c-0.023,0.681-0.098,1.36-0.068,2.045c0.01,0.684-0.004,1.369-0.004,2.056l-0.004,1.027
					c0,0.345,0.033,0.688,0.043,1.03l0.072,2.064c0.031,0.688,0.023,1.382,0.088,2.069c0.104,1.378,0.174,2.764,0.219,4.16
					c-0.354-1.345-0.68-2.699-0.975-4.064c-0.166-0.68-0.268-1.369-0.371-2.059l-0.316-2.072c-0.113-0.69-0.168-1.388-0.219-2.086
					c-0.053-0.699-0.115-1.398-0.158-2.098c-0.066-0.7-0.027-1.406-0.039-2.109c0.008-0.704-0.018-1.41,0.018-2.114l0.178-2.117
					c0.037-0.706,0.178-1.408,0.283-2.112c0.055-0.353,0.115-0.704,0.18-1.052c0.063-0.351,0.172-0.695,0.258-1.043
					c0.188-0.692,0.338-1.392,0.607-2.068l0.363-1.019c0.115-0.342,0.307-0.66,0.455-0.989c0.166-0.326,0.301-0.663,0.496-0.976
					l0.574-0.938c0.418-0.605,0.856-1.206,1.396-1.73c0.246-0.278,0.561-0.508,0.842-0.759c0.324-0.232,0.598-0.441,1.039-0.651
					l0.412,1.304l-0.627,0.059c-0.209,0.015-0.416,0.05-0.627,0.042l-0.633-0.024l-0.316-0.014l-0.316-0.051l-0.625-0.105
					l-0.611-0.184c-0.205-0.054-0.4-0.141-0.59-0.234c-0.189-0.096-0.387-0.169-0.561-0.293c-0.176-0.115-0.357-0.222-0.525-0.348
					l-0.482-0.396c-0.146-0.146-0.291-0.295-0.432-0.444c-0.133-0.155-0.254-0.323-0.379-0.482
					c-0.232-0.335-0.445-0.681-0.609-1.047C88.094,205.878,87.955,205.501,87.873,205.114z"/>
				<path style="fill:#DEDEDE;" d="M107.617,293.704c0,0-13.775,4.966-7.119,22.06c0,0,1.553-18.12,23.572,2.032
					c0,0,1.467-15.245-6.941-18.479C117.129,299.318,107.617,297.886,107.617,293.704z"/>
				<path style="fill:#DEDEDE;" d="M140.455,293.704c0,0,12.398,4.707,5.502,20.028c0,0-6.838-15.893-21.887,4.065
					c0,0-2.137-16.77,6.871-18.479C130.941,299.318,140.455,297.886,140.455,293.704z"/>
			</g>
		</g>
		<g>
			<path style="fill:#00818D;" d="M182.648,237.791c0,1.632-1.33,2.954-2.971,2.954l0,0c-1.639,0-2.971-1.322-2.971-2.954l0,0
				c0-1.633,1.332-2.956,2.971-2.956l0,0C181.318,234.835,182.648,236.158,182.648,237.791L182.648,237.791z"/>
			<g>
				<path style="fill:#464F5B;" d="M156.039,229.295c0-4.173,3.4-7.553,7.592-7.553l0,0c4.193,0,7.594,3.38,7.594,7.553v16.992
					c0,4.17-3.4,7.552-7.594,7.552l0,0c-4.191,0-7.592-3.382-7.592-7.552V229.295z"/>
				<path style="fill:#C6C6C6;" d="M165.189,229.699c3.283,4.057,3.729,8.769,2.793,13.751c-0.801,4.27-3.982,8.579-8.434,9.197
					c1.18,0.75,2.578,1.191,4.082,1.191c4.193,0,7.594-3.382,7.594-7.552v-16.992c0-4.173-3.4-7.553-7.594-7.553
					c-3.277,0-6.063,2.07-7.125,4.965C159.715,226.311,163.059,227.066,165.189,229.699z"/>
				<path style="opacity:0.5;fill:#FFFFFF;" d="M158.729,229.295c0-0.437,0.354-0.786,0.791-0.786l0,0
					c0.436,0,0.791,0.35,0.791,0.786v19.194c0,0.435-0.355,0.786-0.791,0.786l0,0c-0.438,0-0.791-0.352-0.791-0.786V229.295z"/>
			</g>
			<g>
				<path style="fill:#00B1C3;" d="M170.201,226.218v23.145c5.098-1.406,8.844-6.052,8.844-11.572
					C179.045,232.27,175.299,227.624,170.201,226.218z"/>
				<path style="fill:#DADADA;" d="M175.453,242.215c-3.869-2.48-4.857-5.983-5.252-10.195v17.343
					c3.297-0.909,6.02-3.178,7.537-6.155C176.936,242.99,176.164,242.67,175.453,242.215z"/>
			</g>
			
				<path style="fill:none;stroke:#2C343F;stroke-width:2.8397;stroke-linecap:round;stroke-linejoin:round;stroke-miterlimit:10;" d="
				M173.969,244.083c0,0,4.367,39.678-37.387,38.55"/>
			<path style="fill:#232A33;" d="M138.088,282.789c0,1.912-1.559,3.463-3.479,3.463h-4.672c-1.922,0-3.479-1.551-3.479-3.463l0,0
				c0-1.912,1.557-3.459,3.479-3.459h4.672C136.529,279.33,138.088,280.877,138.088,282.789L138.088,282.789z"/>
			<path style="fill:#00818D;" d="M63.344,237.791c0,1.632,1.33,2.954,2.969,2.954l0,0c1.641,0,2.973-1.322,2.973-2.954l0,0
				c0-1.633-1.332-2.956-2.973-2.956l0,0C64.674,234.835,63.344,236.158,63.344,237.791L63.344,237.791z"/>
			<g>
				<path style="fill:#464F5B;" d="M89.951,229.295c0-4.173-3.396-7.553-7.592-7.553l0,0c-4.193,0-7.592,3.38-7.592,7.553v16.992
					c0,4.17,3.398,7.552,7.592,7.552l0,0c4.195,0,7.592-3.382,7.592-7.552V229.295z"/>
				<path style="fill:#C6C6C6;" d="M80.803,229.699c-3.283,4.057-3.726,8.769-2.795,13.751c0.801,4.27,3.982,8.579,8.434,9.197
					c-1.18,0.75-2.576,1.191-4.082,1.191c-4.193,0-7.592-3.382-7.592-7.552v-16.992c0-4.173,3.398-7.553,7.592-7.553
					c3.277,0,6.063,2.07,7.127,4.965C86.277,226.311,82.934,227.066,80.803,229.699z"/>
				<path style="opacity:0.5;fill:#FFFFFF;" d="M87.264,229.295c0-0.437-0.354-0.786-0.791-0.786l0,0
					c-0.438,0-0.791,0.35-0.791,0.786v19.194c0,0.435,0.354,0.786,0.791,0.786l0,0c0.438,0,0.791-0.352,0.791-0.786V229.295z"/>
			</g>
			<g>
				<path style="fill:#00B1C3;" d="M75.791,226.218v23.145c-5.102-1.406-8.846-6.052-8.846-11.572
					C66.945,232.27,70.689,227.624,75.791,226.218z"/>
				<path style="fill:#DADADA;" d="M70.539,242.215c3.865-2.48,4.855-5.983,5.252-10.195v17.343
					c-3.297-0.909-6.021-3.178-7.539-6.155C69.057,242.99,69.828,242.67,70.539,242.215z"/>
			</g>
		</g>
	</g>
	<g>
		<path style="fill:#F39200;" d="M122.129,125.39c0,0-2.783,20.021,12.406,29.435c0,0-31.932,6.063-40.295-13.263L122.129,125.39z"
			/>
		<path style="fill:#C6C6C6;" d="M122.129,125.39c0,0-2.783,20.021,12.406,29.435c0,0-31.932,6.063-40.295-13.263L122.129,125.39z"
			/>
		<path style="fill:#F39200;" d="M25.953,130.065c9.945,23.601,44.748,31.463,77.738,17.56
			c32.988-13.902,51.668-44.305,41.723-67.905c-9.945-23.601-44.752-31.462-77.74-17.56
			C34.684,76.063,16.006,106.464,25.953,130.065z"/>
		<path style="fill:#C6C6C6;" d="M24.828,126.926c9.717,17.524,37.244,22.949,63.41,11.921
			c27.475-11.579,43.033-36.898,34.75-56.554c-8.283-19.656-37.273-26.202-64.746-14.624c-2.068,0.872-4.059,1.829-5.986,2.848
			c4.688-3.18,9.846-6.009,15.418-8.358c32.988-13.902,67.795-6.041,77.74,17.56c9.945,23.601-8.734,54.003-41.723,67.905
			c-32.99,13.903-67.793,6.041-77.738-17.56C25.518,129.032,25.156,127.983,24.828,126.926z"/>
		<path style="fill:#FFFFFF;" d="M39.887,109.127c3.701,8.783,20.506,10.086,37.533,2.909c17.027-7.175,27.832-20.113,24.129-28.896
			c-3.701-8.783-20.506-10.086-37.533-2.91C46.988,87.406,36.184,100.344,39.887,109.127z"/>
		<g>
			<g>
				<path style="fill:#FFFFFF;" d="M104.924,104.664c0.047,3.971,3.301,7.151,7.275,7.104c3.971-0.047,7.15-3.305,7.103-7.276
					c-0.049-3.972-3.305-7.152-7.275-7.104C108.055,97.435,104.875,100.691,104.924,104.664z"/>
				<path style="fill:#DADADA;" d="M110.648,97.539c0.445-0.092,0.906-0.146,1.379-0.151c3.971-0.048,7.227,3.132,7.275,7.104
					c0.047,3.971-3.133,7.229-7.103,7.276c-1.213,0.015-2.363-0.277-3.373-0.796C113.35,108.239,113.924,101.39,110.648,97.539z"/>
			</g>
			<g>
				<path style="fill:#FFFFFF;" d="M78.492,104.978c0.049,3.971,3.305,7.152,7.277,7.104c3.969-0.047,7.148-3.304,7.102-7.275
					c-0.049-3.973-3.303-7.152-7.273-7.105C81.625,97.749,78.445,101.006,78.492,104.978z"/>
				<path style="fill:#DADADA;" d="M84.219,97.854c0.445-0.092,0.904-0.146,1.379-0.152c3.971-0.047,7.225,3.133,7.273,7.105
					c0.047,3.971-3.133,7.229-7.102,7.275c-1.215,0.015-2.363-0.276-3.373-0.795C86.92,108.554,87.494,101.705,84.219,97.854z"/>
			</g>
			<g>
				<path style="fill:#FFFFFF;" d="M52.063,105.293c0.049,3.971,3.307,7.152,7.275,7.104c3.971-0.047,7.152-3.305,7.104-7.276
					c-0.047-3.972-3.303-7.151-7.273-7.104C55.195,98.064,52.016,101.321,52.063,105.293z"/>
				<path style="fill:#DADADA;" d="M57.789,98.168c0.447-0.092,0.904-0.146,1.379-0.151c3.971-0.047,7.227,3.133,7.273,7.104
					c0.049,3.971-3.133,7.229-7.104,7.276c-1.213,0.014-2.359-0.276-3.369-0.796C60.488,108.869,61.064,102.02,57.789,98.168z"/>
			</g>
		</g>
	</g>
</g>
</svg>
