<svg xmlns="http://www.w3.org/2000/svg" width="90" height="99" fill="none"><path fill="#6C6" d="M18.4114 34.1481c.6137-1.1217 1.025-2.3554 1.1742-3.6246.7037-5.9903-2.4397-10.3992-8.7578-10.6113-6.61588-.2222-13.09769 7.336-8.5246 14.1257.86919 1.2903 1.78127 3.6023 2.03436 5.1354 1.21409 7.3553 1.58919 17.4942-1.21832 23.4182-.08276.1747-.18846.3386-.31953.4807C1.16098 64.8457.2785 67.2475.969506 70.9552c.269394 1.4446.886714 2.8 1.774634 3.9722 1.71966 2.2705 3.62113 3.953 7.24227 4.1873l5.58849.6391c.0525.0061.1057.0145.1582.0241 9.9574 1.947 15.6304 6.2626 20.4083 13.1251.0477.0686.0894.1415.1262.2162 1.7915 3.6391 4.8334 5.2108 8.7511 5.3349.1021.003.2054-.0006.3069-.0115 3.7896-.4024 6.7856-2.059 8.7016-5.4204 5.4658-7.4323 12.4296-13.0087 23.1529-13.9298 4.3164-.3349 8.5488-.8759 10.9492-5.9131 1.469-3.3988 1.2075-7.0939-1.3047-11.1763-.0803-.1301-.1443-.2699-.1878-.4163-2.8154-9.4275-3.6761-18.4647.6789-26.4591 2.6795-5.0463 1.2684-8.0709.8366-9.4251-.0151-.0482-.0314-.0946-.0508-.141-1.0794-2.6168-3.7612-6.5294-9.7502-6.0673-13.8014.3102-17.9462-6.9722-23.5685-13.09314-.0652-.07108-.1232-.14819-.1733-.23011C50.1083-1.15843 42.95-.997586 39.124 2.04814c-2.3774 1.68069-4.4746 4.70653-3.85 9.53176.0115.0873.029.1747.0507.2596.572 2.2048.6651 2.5289 3.4079 6.068 3.1241 4.03 2.3859 16.1659-.3014 23.4453-.0217.059-.0459.1156-.0731.1723-.7695 1.6084-1.5553 3.215-2.1008 4.8451-1.3355 3.9884-.2047 8.4251 3.0069 11.1491 1.4466 1.2265 3.2231 2.0169 5.6869 1.897.0803-.0036.1619-.0121.241-.0241 4.0524-.5958 6.7367-2.0102 8.3984-5.0921 2.7767-5.7523.3787-9.563-2.6004-16.072-.0392-.0861-.073-.1747-.0996-.265-1.945-6.5963-2.2059-16.8943.2845-18.2569 2.5037-1.3698 21.3209 7.1716 24.2764 25.1802.0091.0555.0163.1121.0218.1681.9881 10.4161.224 20.5587-12.3029 29.7826-.0779.0572-.1606.1096-.2452.1548-13.9663 7.5065-24.0626 7.3384-36.5575-.6843-.1148-.0741-.2223-.1609-.3183-.2579-6.094-6.1553-11.944-13.1991-11.6438-27.2964.0398-4.7421 1.5263-8.0728 4.0053-12.6052h.0006Z"/></svg>